<mxfile host="app.diagrams.net" modified="2020-11-10T08:58:37.908Z" agent="5.0 (X11)" etag="PUlFzJ4TgT8MKM-uDQ3W" version="13.9.2" type="github">
  <diagram id="C5RBs43oDa-KdzZeNtuy" name="Page-1">
    <mxGraphModel dx="1336" dy="804" grid="1" gridSize="10" guides="1" tooltips="1" connect="1" arrows="1" fold="1" page="1" pageScale="1" pageWidth="827" pageHeight="1169" math="0" shadow="0">
      <root>
        <mxCell id="WIyWlLk6GJQsqaUBKTNV-0" />
        <mxCell id="WIyWlLk6GJQsqaUBKTNV-1" parent="WIyWlLk6GJQsqaUBKTNV-0" />
        <mxCell id="Sk-DR61o-ZHJDascRDna-0" value="&lt;div style=&quot;font-size: 22px&quot;&gt;&lt;font style=&quot;font-size: 22px&quot; color=&quot;#FFFFFF&quot;&gt;&lt;b&gt;&lt;br&gt;&lt;/b&gt;&lt;/font&gt;&lt;/div&gt;&lt;div style=&quot;font-size: 22px&quot;&gt;&lt;font style=&quot;font-size: 22px&quot; color=&quot;#FFFFFF&quot;&gt;&lt;b&gt;OCA&lt;/b&gt;&lt;/font&gt;&lt;/div&gt;" style="shape=cylinder3;whiteSpace=wrap;html=1;boundedLbl=1;backgroundOutline=1;size=15;strokeColor=#996185;gradientColor=#d5739d;fillColor=#FFF4C3;" vertex="1" parent="WIyWlLk6GJQsqaUBKTNV-1">
          <mxGeometry x="130" y="20" width="250" height="150" as="geometry" />
        </mxCell>
        <mxCell id="Sk-DR61o-ZHJDascRDna-1" value="Actor" style="shape=umlActor;verticalLabelPosition=bottom;verticalAlign=top;html=1;outlineConnect=0;strokeWidth=2;perimeterSpacing=3;" vertex="1" parent="WIyWlLk6GJQsqaUBKTNV-1">
          <mxGeometry x="40" y="350" width="40" height="60" as="geometry" />
        </mxCell>
        <mxCell id="Sk-DR61o-ZHJDascRDna-3" value="Actor01" style="shape=umlActor;verticalLabelPosition=bottom;verticalAlign=top;html=1;outlineConnect=0;fillColor=#d80073;strokeColor=#A50040;fontColor=#ffffff;strokeWidth=2;" vertex="1" parent="WIyWlLk6GJQsqaUBKTNV-1">
          <mxGeometry x="40" y="550" width="40" height="67.5" as="geometry" />
        </mxCell>
        <mxCell id="Sk-DR61o-ZHJDascRDna-4" value="" style="shape=parallelogram;perimeter=parallelogramPerimeter;whiteSpace=wrap;html=1;fixedSize=1;fillColor=#fff2cc;strokeColor=#d6b656;" vertex="1" parent="WIyWlLk6GJQsqaUBKTNV-1">
          <mxGeometry x="80" y="550" width="200" height="35" as="geometry" />
        </mxCell>
        <mxCell id="Sk-DR61o-ZHJDascRDna-6" value="" style="endArrow=none;dashed=1;html=1;strokeWidth=3;fillColor=#0050ef;strokeColor=#001DBC;" edge="1" parent="WIyWlLk6GJQsqaUBKTNV-1">
          <mxGeometry width="50" height="50" relative="1" as="geometry">
            <mxPoint x="60" y="540" as="sourcePoint" />
            <mxPoint x="59.5" y="430" as="targetPoint" />
          </mxGeometry>
        </mxCell>
        <mxCell id="Sk-DR61o-ZHJDascRDna-7" value="" style="curved=1;endArrow=classic;html=1;fillColor=#60a917;strokeColor=#2D7600;strokeWidth=5;" edge="1" parent="WIyWlLk6GJQsqaUBKTNV-1">
          <mxGeometry width="50" height="50" relative="1" as="geometry">
            <mxPoint x="310" y="550" as="sourcePoint" />
            <mxPoint x="410" y="150" as="targetPoint" />
            <Array as="points">
              <mxPoint x="410" y="510" />
              <mxPoint x="540" y="410" />
              <mxPoint x="550" y="260" />
            </Array>
          </mxGeometry>
        </mxCell>
        <mxCell id="Sk-DR61o-ZHJDascRDna-8" value="14.0......" style="text;html=1;align=center;verticalAlign=middle;resizable=0;points=[];autosize=1;" vertex="1" parent="WIyWlLk6GJQsqaUBKTNV-1">
          <mxGeometry x="105" y="320" width="60" height="20" as="geometry" />
        </mxCell>
        <mxCell id="Sk-DR61o-ZHJDascRDna-9" value="14.0&amp;nbsp; migrade nattapol" style="text;html=1;align=center;verticalAlign=middle;resizable=0;points=[];autosize=1;" vertex="1" parent="WIyWlLk6GJQsqaUBKTNV-1">
          <mxGeometry x="110" y="557.5" width="140" height="20" as="geometry" />
        </mxCell>
        <mxCell id="Sk-DR61o-ZHJDascRDna-10" value="14.0&amp;nbsp; migrade nattapol" style="text;html=1;align=center;verticalAlign=middle;resizable=0;points=[];autosize=1;" vertex="1" parent="WIyWlLk6GJQsqaUBKTNV-1">
          <mxGeometry x="300" y="180" width="140" height="20" as="geometry" />
        </mxCell>
        <mxCell id="Sk-DR61o-ZHJDascRDna-11" value="......" style="shape=umlActor;verticalLabelPosition=bottom;verticalAlign=top;html=1;outlineConnect=0;strokeWidth=3;fillColor=#0050ef;strokeColor=#001DBC;fontColor=#ffffff;" vertex="1" parent="WIyWlLk6GJQsqaUBKTNV-1">
          <mxGeometry x="600" y="20" width="30" height="60" as="geometry" />
        </mxCell>
        <mxCell id="Sk-DR61o-ZHJDascRDna-12" value="......." style="shape=umlActor;verticalLabelPosition=bottom;verticalAlign=top;html=1;outlineConnect=0;strokeWidth=3;fillColor=#d80073;strokeColor=#A50040;fontColor=#ffffff;" vertex="1" parent="WIyWlLk6GJQsqaUBKTNV-1">
          <mxGeometry x="600" y="140" width="30" height="60" as="geometry" />
        </mxCell>
        <mxCell id="Sk-DR61o-ZHJDascRDna-16" value="" style="endArrow=none;dashed=1;html=1;dashPattern=1 3;strokeWidth=2;fillColor=#6a00ff;strokeColor=#3700CC;" edge="1" parent="WIyWlLk6GJQsqaUBKTNV-1">
          <mxGeometry width="50" height="50" relative="1" as="geometry">
            <mxPoint x="590" y="180" as="sourcePoint" />
            <mxPoint x="590" y="60" as="targetPoint" />
            <Array as="points">
              <mxPoint x="480" y="110" />
            </Array>
          </mxGeometry>
        </mxCell>
        <mxCell id="Sk-DR61o-ZHJDascRDna-17" value="14.0...." style="text;html=1;align=center;verticalAlign=middle;resizable=0;points=[];autosize=1;" vertex="1" parent="WIyWlLk6GJQsqaUBKTNV-1">
          <mxGeometry x="210" y="170" width="60" height="20" as="geometry" />
        </mxCell>
        <mxCell id="Sk-DR61o-ZHJDascRDna-18" value="B1" style="text;html=1;align=center;verticalAlign=middle;resizable=0;points=[];autosize=1;" vertex="1" parent="WIyWlLk6GJQsqaUBKTNV-1">
          <mxGeometry x="600" y="80" width="30" height="20" as="geometry" />
        </mxCell>
        <mxCell id="Sk-DR61o-ZHJDascRDna-19" value="B2" style="text;html=1;align=center;verticalAlign=middle;resizable=0;points=[];autosize=1;" vertex="1" parent="WIyWlLk6GJQsqaUBKTNV-1">
          <mxGeometry x="600" y="210" width="30" height="20" as="geometry" />
        </mxCell>
        <mxCell id="Sk-DR61o-ZHJDascRDna-20" value="14.0 another..." style="text;html=1;align=center;verticalAlign=middle;resizable=0;points=[];autosize=1;" vertex="1" parent="WIyWlLk6GJQsqaUBKTNV-1">
          <mxGeometry x="380" y="100" width="100" height="20" as="geometry" />
        </mxCell>
        <mxCell id="Sk-DR61o-ZHJDascRDna-21" value="" style="endArrow=classic;html=1;strokeWidth=3;fillColor=#e3c800;strokeColor=#B09500;" edge="1" parent="WIyWlLk6GJQsqaUBKTNV-1">
          <mxGeometry width="50" height="50" relative="1" as="geometry">
            <mxPoint x="90" y="540" as="sourcePoint" />
            <mxPoint x="90" y="430" as="targetPoint" />
          </mxGeometry>
        </mxCell>
        <mxCell id="Sk-DR61o-ZHJDascRDna-23" value="check out" style="text;html=1;align=center;verticalAlign=middle;resizable=0;points=[];autosize=1;" vertex="1" parent="WIyWlLk6GJQsqaUBKTNV-1">
          <mxGeometry x="95" y="480" width="70" height="20" as="geometry" />
        </mxCell>
        <mxCell id="Sk-DR61o-ZHJDascRDna-26" value="" style="endArrow=none;html=1;strokeWidth=2;" edge="1" parent="WIyWlLk6GJQsqaUBKTNV-1" source="Sk-DR61o-ZHJDascRDna-47">
          <mxGeometry width="50" height="50" relative="1" as="geometry">
            <mxPoint x="20" y="750" as="sourcePoint" />
            <mxPoint x="20" y="390" as="targetPoint" />
          </mxGeometry>
        </mxCell>
        <mxCell id="Sk-DR61o-ZHJDascRDna-32" value="" style="endArrow=none;html=1;strokeWidth=3;" edge="1" parent="WIyWlLk6GJQsqaUBKTNV-1">
          <mxGeometry width="50" height="50" relative="1" as="geometry">
            <mxPoint x="20" y="750" as="sourcePoint" />
            <mxPoint x="50" y="750" as="targetPoint" />
          </mxGeometry>
        </mxCell>
        <mxCell id="Sk-DR61o-ZHJDascRDna-33" value="" style="shape=parallelogram;perimeter=parallelogramPerimeter;whiteSpace=wrap;html=1;fixedSize=1;fillColor=#fff2cc;strokeColor=#d6b656;" vertex="1" parent="WIyWlLk6GJQsqaUBKTNV-1">
          <mxGeometry x="70" y="730" width="200" height="35" as="geometry" />
        </mxCell>
        <mxCell id="Sk-DR61o-ZHJDascRDna-34" value="" style="curved=1;endArrow=classic;html=1;strokeWidth=5;fillColor=#60a917;strokeColor=#2D7600;" edge="1" parent="WIyWlLk6GJQsqaUBKTNV-1">
          <mxGeometry width="50" height="50" relative="1" as="geometry">
            <mxPoint x="290" y="750" as="sourcePoint" />
            <mxPoint x="430" y="140" as="targetPoint" />
            <Array as="points">
              <mxPoint x="440" y="720" />
              <mxPoint x="630" y="590" />
              <mxPoint x="660" y="330" />
            </Array>
          </mxGeometry>
        </mxCell>
        <mxCell id="Sk-DR61o-ZHJDascRDna-36" value="" style="endArrow=classic;html=1;strokeWidth=3;fillColor=#e3c800;strokeColor=#B09500;" edge="1" parent="WIyWlLk6GJQsqaUBKTNV-1">
          <mxGeometry width="50" height="50" relative="1" as="geometry">
            <mxPoint x="90" y="710" as="sourcePoint" />
            <mxPoint x="90" y="600" as="targetPoint" />
          </mxGeometry>
        </mxCell>
        <mxCell id="Sk-DR61o-ZHJDascRDna-37" value="check out" style="text;html=1;align=center;verticalAlign=middle;resizable=0;points=[];autosize=1;" vertex="1" parent="WIyWlLk6GJQsqaUBKTNV-1">
          <mxGeometry x="95" y="660" width="70" height="20" as="geometry" />
        </mxCell>
        <mxCell id="Sk-DR61o-ZHJDascRDna-38" value="14.0&amp;nbsp; migrade nattapol_01" style="text;html=1;align=center;verticalAlign=middle;resizable=0;points=[];autosize=1;" vertex="1" parent="WIyWlLk6GJQsqaUBKTNV-1">
          <mxGeometry x="80" y="737.5" width="170" height="20" as="geometry" />
        </mxCell>
        <mxCell id="Sk-DR61o-ZHJDascRDna-39" value="Actor01" style="shape=umlActor;verticalLabelPosition=bottom;verticalAlign=top;html=1;outlineConnect=0;fillColor=#d80073;strokeColor=#A50040;fontColor=#ffffff;strokeWidth=2;" vertex="1" parent="WIyWlLk6GJQsqaUBKTNV-1">
          <mxGeometry x="40" y="770" width="40" height="67.5" as="geometry" />
        </mxCell>
        <mxCell id="Sk-DR61o-ZHJDascRDna-40" value="" style="ellipse;whiteSpace=wrap;html=1;aspect=fixed;strokeWidth=3;fillColor=#FFF4C3;" vertex="1" parent="WIyWlLk6GJQsqaUBKTNV-1">
          <mxGeometry x="80" y="707.5" width="22.5" height="22.5" as="geometry" />
        </mxCell>
        <mxCell id="Sk-DR61o-ZHJDascRDna-42" value="" style="ellipse;whiteSpace=wrap;html=1;aspect=fixed;strokeWidth=3;fillColor=#FFF4C3;" vertex="1" parent="WIyWlLk6GJQsqaUBKTNV-1">
          <mxGeometry x="80" y="535" width="22.5" height="22.5" as="geometry" />
        </mxCell>
        <mxCell id="Sk-DR61o-ZHJDascRDna-44" value="" style="endArrow=none;html=1;strokeWidth=3;" edge="1" parent="WIyWlLk6GJQsqaUBKTNV-1">
          <mxGeometry width="50" height="50" relative="1" as="geometry">
            <mxPoint x="20" y="560" as="sourcePoint" />
            <mxPoint x="40" y="560" as="targetPoint" />
          </mxGeometry>
        </mxCell>
        <mxCell id="Sk-DR61o-ZHJDascRDna-47" value="" style="ellipse;whiteSpace=wrap;html=1;aspect=fixed;strokeWidth=3;fillColor=#FFF4C3;" vertex="1" parent="WIyWlLk6GJQsqaUBKTNV-1">
          <mxGeometry x="10" y="387.5" width="12.5" height="12.5" as="geometry" />
        </mxCell>
        <mxCell id="Sk-DR61o-ZHJDascRDna-48" value="" style="endArrow=none;html=1;strokeWidth=2;" edge="1" parent="WIyWlLk6GJQsqaUBKTNV-1" target="Sk-DR61o-ZHJDascRDna-47">
          <mxGeometry width="50" height="50" relative="1" as="geometry">
            <mxPoint x="20" y="750" as="sourcePoint" />
            <mxPoint x="20" y="390" as="targetPoint" />
          </mxGeometry>
        </mxCell>
        <mxCell id="Sk-DR61o-ZHJDascRDna-53" value="&lt;span style=&quot;background-color: rgb(51 , 51 , 255)&quot;&gt;&lt;font color=&quot;#FF33FF&quot;&gt;&lt;b&gt;&lt;font style=&quot;font-size: 35px&quot;&gt;&lt;font style=&quot;font-size: 35px&quot;&gt;&lt;font style=&quot;font-size: 35px&quot;&gt;origin&lt;/font&gt;&lt;/font&gt;al&lt;/font&gt;&lt;/b&gt;&lt;/font&gt;&lt;/span&gt;" style="rounded=1;whiteSpace=wrap;html=1;strokeWidth=2;fillWeight=4;hachureGap=8;hachureAngle=45;fillColor=#1ba1e2;sketch=1;" vertex="1" parent="WIyWlLk6GJQsqaUBKTNV-1">
          <mxGeometry x="90" y="360" width="360" height="60" as="geometry" />
        </mxCell>
        <mxCell id="Sk-DR61o-ZHJDascRDna-55" value="" style="shape=flexArrow;endArrow=classic;html=1;strokeWidth=5;fillColor=#cce5ff;strokeColor=#36393d;" edge="1" parent="WIyWlLk6GJQsqaUBKTNV-1">
          <mxGeometry width="50" height="50" relative="1" as="geometry">
            <mxPoint x="180" y="180" as="sourcePoint" />
            <mxPoint x="70" y="330" as="targetPoint" />
          </mxGeometry>
        </mxCell>
        <mxCell id="Sk-DR61o-ZHJDascRDna-56" value="" style="shape=umlActor;verticalLabelPosition=bottom;verticalAlign=top;html=1;outlineConnect=0;strokeWidth=2;perimeterSpacing=3;" vertex="1" parent="WIyWlLk6GJQsqaUBKTNV-1">
          <mxGeometry x="605" y="778.75" width="30" height="42.5" as="geometry" />
        </mxCell>
        <mxCell id="Sk-DR61o-ZHJDascRDna-57" value="Actor01" style="shape=umlActor;verticalLabelPosition=bottom;verticalAlign=top;html=1;outlineConnect=0;fillColor=#d80073;strokeColor=#A50040;fontColor=#ffffff;strokeWidth=2;" vertex="1" parent="WIyWlLk6GJQsqaUBKTNV-1">
          <mxGeometry x="605" y="830" width="30" height="40" as="geometry" />
        </mxCell>
        <mxCell id="Sk-DR61o-ZHJDascRDna-60" value="Original" style="text;html=1;align=center;verticalAlign=middle;resizable=0;points=[];autosize=1;" vertex="1" parent="WIyWlLk6GJQsqaUBKTNV-1">
          <mxGeometry x="630" y="790" width="60" height="20" as="geometry" />
        </mxCell>
        <mxCell id="Sk-DR61o-ZHJDascRDna-61" value="Copy" style="text;html=1;align=center;verticalAlign=middle;resizable=0;points=[];autosize=1;" vertex="1" parent="WIyWlLk6GJQsqaUBKTNV-1">
          <mxGeometry x="635" y="837.5" width="50" height="20" as="geometry" />
        </mxCell>
        <mxCell id="Sk-DR61o-ZHJDascRDna-64" value="&lt;font style=&quot;font-size: 39px&quot;&gt;ecosoft&lt;/font&gt;" style="rhombus;whiteSpace=wrap;html=1;strokeWidth=2;fillWeight=-1;hachureGap=8;fillStyle=cross-hatch;sketch=1;fillColor=#FFFF00;" vertex="1" parent="WIyWlLk6GJQsqaUBKTNV-1">
          <mxGeometry x="470" y="240" width="240" height="160" as="geometry" />
        </mxCell>
      </root>
    </mxGraphModel>
  </diagram>
</mxfile>
